<svg width="20" height="20" fill="none" xmlns="http://www.w3.org/2000/svg"><path d="M19.598 10.22c0-.821-.067-1.421-.211-2.043H9.999v3.71h5.51c-.11.922-.71 2.311-2.044 3.244l-.018.124 2.968 2.3.205.02c1.889-1.744 2.978-4.31 2.978-7.354z" fill="#4285F4"/><path d="M9.999 19.997c2.7 0 4.965-.889 6.62-2.421l-3.154-2.445c-.845.59-1.978 1-3.466 1-2.645 0-4.889-1.744-5.689-4.155l-.117.01-3.086 2.389-.04.112a9.991 9.991 0 008.932 5.51z" fill="#34A853"/><path d="M4.31 11.976A6.156 6.156 0 013.978 10c0-.69.122-1.356.322-1.978l-.005-.132-3.125-2.427-.103.048A10.008 10.008 0 000 10c0 1.61.389 3.133 1.067 4.488l3.244-2.51z" fill="#FBBC05"/><path d="M9.999 3.866c1.877 0 3.144.811 3.866 1.489L16.686 2.6C14.954.989 12.698 0 10 0a9.991 9.991 0 00-8.933 5.51L4.3 8.021c.811-2.41 3.055-4.155 5.7-4.155z" fill="#EB4335"/></svg>